HIERARCHY
ROOT Hips
{
	OFFSET 0.0000 0.0000 0.0000
	CHANNELS 6 Xposition Yposition Zposition Zrotation Xrotation Yrotation
	JOINT Ab
	{
		OFFSET -0.0000 8.0846 -0.0000
		CHANNELS 3 Zrotation Xrotation Yrotation
		JOINT Chest
		{
			OFFSET -0.0000 25.0068 -0.0000
			CHANNELS 3 Zrotation Xrotation Yrotation
			JOINT Neck
			{
				OFFSET -0.0000 25.0068 0.0000
				CHANNELS 3 Zrotation Xrotation Yrotation
				JOINT Head
				{
					OFFSET -0.0000 10.7556 0.0000
					CHANNELS 3 Zrotation Xrotation Yrotation
					End Site
					{
						OFFSET -0.0000 16.6222 0.0000
					}
				}
			}
			JOINT LeftCollar
			{
				OFFSET -0.0000 25.0068 0.0000
				CHANNELS 3 Zrotation Xrotation Yrotation
				JOINT LeftShoulder
				{
					OFFSET 19.5556 -0.0000 0.0000
					CHANNELS 3 Zrotation Xrotation Yrotation
					JOINT LeftElbow
					{
						OFFSET 27.1828 0.0000 0.0000
						CHANNELS 3 Zrotation Xrotation Yrotation
						JOINT LeftWrist
						{
							OFFSET 23.3157 0.0000 0.0000
							CHANNELS 3 Zrotation Xrotation Yrotation
							End Site
							{
								OFFSET 0.0000 -14.6667 0.0000
							}
						}
					}
				}
			}
			JOINT RightCollar
			{
				OFFSET -0.0000 25.0068 0.0000
				CHANNELS 3 Zrotation Xrotation Yrotation
				JOINT RightShoulder
				{
					OFFSET -19.5556 0.0000 0.0000
					CHANNELS 3 Zrotation Xrotation Yrotation
					JOINT RightElbow
					{
						OFFSET -27.1828 0.0000 0.0000
						CHANNELS 3 Zrotation Xrotation Yrotation
						JOINT RightWrist
						{
							OFFSET -23.3157 0.0000 0.0000
							CHANNELS 3 Zrotation Xrotation Yrotation
							End Site
							{
								OFFSET -0.0000 -14.6667 0.0000
							}
						}
					}
				}
			}
		}
	}
	JOINT LeftHip
	{
		OFFSET 11.7333 0.0000 0.0000
		CHANNELS 3 Zrotation Xrotation Yrotation
		JOINT LeftKnee
		{
			OFFSET -0.0000 -40.8688 0.0000
			CHANNELS 3 Zrotation Xrotation Yrotation
			JOINT LeftAnkle
			{
				OFFSET -0.0000 -44.4337 0.0000
				CHANNELS 3 Zrotation Xrotation Yrotation
				End Site
				{
					OFFSET -0.0000 -4.8889 16.6222
				}
			}
		}
	}
	JOINT RightHip
	{
		OFFSET -11.7333 0.0000 0.0000
		CHANNELS 3 Zrotation Xrotation Yrotation
		JOINT RightKnee
		{
			OFFSET -0.0000 -40.8688 0.0000
			CHANNELS 3 Zrotation Xrotation Yrotation
			JOINT RightAnkle
			{
				OFFSET -0.0000 -44.4337 0.0000
				CHANNELS 3 Zrotation Xrotation Yrotation
				End Site
				{
					OFFSET -0.0000 -4.8889 16.6222
				}
			}
		}
	}
}
MOTION
Frames: 12
Frame Time: 0.010000
-7.9133 87.2322 92.6954 2.7526 0.4083 176.5445 358.9272 5.1357 356.3778 2.8431 12.2490 356.0231 4.4066 355.9440 1.0370 355.9296 22.4872 1.6873 339.6417 359.2257 4.3344 306.4709 28.7208 347.4205 14.8578 354.7885 322.1303 83.0109 0.0771 338.2093 20.9294 358.7720 353.3616 65.2436 36.6743 1.0272 341.7460 355.1232 29.7160 279.0766 352.9370 25.1494 359.7389 5.1907 357.0125 358.0605 8.2996 356.2142 359.9965 349.3176 21.4910 0.1758 334.0816 5.5126 0.6394 21.6369 1.3385 0.3635 353.9989 341.0258 
-7.8136 87.1811 92.3836 2.6379 0.3425 176.6702 358.8735 5.1411 356.3779 2.8783 12.3059 356.0148 4.4249 355.9697 1.0037 355.9720 22.4382 1.6449 339.6367 359.2344 4.3303 306.5584 28.7732 347.2821 14.8807 354.8071 322.0726 82.9901 0.2006 338.3699 20.9224 358.7722 353.3542 65.3458 36.6158 0.9046 341.8263 355.1415 29.7542 279.0570 353.0803 25.0891 359.7235 5.4335 357.1364 358.0334 8.0858 356.0144 359.9249 349.2534 21.4697 0.0817 333.8830 5.6753 0.6495 21.2633 1.0040 0.6140 353.9819 341.2733 
-7.7147 87.1280 92.0653 2.5424 0.3818 176.9273 358.8861 5.2944 356.3220 2.8999 12.3274 355.9550 4.4419 355.9320 0.8975 356.0665 22.4391 1.5139 339.6299 359.2326 4.2670 306.6843 28.9559 347.1515 14.9802 354.7689 322.0084 82.8894 0.1452 338.4888 20.9032 358.7636 353.2575 65.4689 36.5722 0.8212 341.8718 355.1461 29.7013 279.1071 353.0409 25.0725 359.7036 5.6735 357.0728 358.0528 8.0437 355.9185 359.9340 349.1435 21.4262 359.9278 333.8368 5.7400 0.7246 20.8877 0.7017 0.6948 353.8915 341.2192 
-7.6107 87.0727 91.7411 2.4327 0.3845 177.1537 358.8421 5.3695 356.3171 2.9697 12.4295 355.9361 4.5198 355.8549 0.7925 356.0279 22.4655 1.4110 339.6068 359.2198 4.2217 306.8375 29.1511 346.9893 15.0862 354.7286 321.9230 82.8487 0.0702 338.7108 20.8566 358.7582 353.1839 65.5995 36.4883 0.7582 341.9037 355.1660 29.6891 279.1662 353.0519 25.0899 359.6796 5.8743 356.8484 358.0204 8.0169 355.9924 359.7377 348.9622 21.3031 359.7776 333.7391 5.6771 0.8010 20.5997 0.2259 0.7537 353.5998 341.5839 
-7.4995 87.0130 91.4159 2.3130 0.3109 177.3567 358.8550 5.4113 356.2733 2.9578 12.4446 355.8935 4.5342 355.8213 0.7390 356.0952 22.5075 1.3478 339.5576 359.1991 4.4305 307.2437 30.0295 346.5628 15.5563 354.5047 322.1226 82.7260 359.9482 339.2958 20.8489 358.7477 353.1569 65.7487 36.4365 0.6245 341.9015 355.1802 29.7191 279.3136 353.1643 25.0262 359.6371 5.9718 356.8335 358.0404 8.0594 355.9145 359.4001 348.6801 21.1282 359.6496 333.5498 5.5609 0.7815 20.3995 0.1744 0.6224 353.4550 341.4433 
-7.3785 86.9509 91.0799 2.1892 0.2289 177.5505 358.8530 5.4248 356.2546 2.9613 12.4861 355.8728 4.5267 355.8222 0.6845 356.1691 22.4745 1.2773 339.4760 359.1698 4.7364 307.8087 31.2574 345.9699 16.2537 354.2080 322.4871 82.4774 359.7771 340.1233 20.8181 358.7305 353.1352 65.9093 36.4606 0.5086 341.8514 355.1586 29.7061 279.4052 353.2704 24.9071 359.5963 6.0490 356.9711 358.0854 8.1547 355.6604 359.2932 348.3875 21.1021 359.5347 333.3714 5.4386 0.7109 20.2384 0.4287 0.2724 353.4023 340.9632 
-7.2544 86.8883 90.7337 2.0563 0.1459 177.7424 358.8694 5.4521 356.2388 2.9372 12.5026 355.8596 4.5636 355.8304 0.6217 356.1793 22.4407 1.2085 339.4472 359.1500 4.7423 307.9924 31.4763 345.8365 16.4135 354.2477 322.4527 82.5529 359.6886 340.5057 20.8150 358.7384 353.0760 66.0095 36.3972 0.4393 341.9508 355.1744 29.6994 279.4140 353.3326 24.9988 359.5528 6.1660 356.8339 358.0890 8.1772 355.6360 359.1674 348.1464 21.1400 359.4121 333.2179 5.3055 0.7214 20.1304 0.2763 0.1898 353.2309 340.9503 
-7.1243 86.8204 90.3748 1.9198 0.0939 177.9053 358.8721 5.5079 356.2572 2.9230 12.5395 355.8776 4.5786 355.8087 0.5742 356.2519 22.4307 1.1441 339.4333 359.1329 4.7716 308.1310 31.6530 345.6972 16.5303 354.2475 322.3944 82.5647 359.6619 340.7048 20.7869 358.7213 353.0401 66.1654 36.4157 0.3429 341.8582 355.1537 29.6971 279.5417 353.3354 24.9750 359.5042 6.3463 356.7931 358.1087 8.1655 355.5954 359.2021 348.0148 21.0287 359.2966 333.1081 5.2271 0.8344 20.0314 359.7263 359.8086 353.0053 341.0048 
-6.9790 86.7560 90.0277 1.7741 359.9361 178.0884 358.8714 5.5014 356.2420 2.9217 12.5105 355.8639 4.4860 355.7880 0.5015 356.5026 22.4389 1.0220 339.4056 359.1406 4.8293 308.3496 31.9574 345.5029 16.6945 354.2113 322.3989 82.6216 359.5722 341.1866 20.7716 358.6945 352.9757 66.2908 36.4365 0.2500 341.8723 355.1713 29.6199 279.5146 353.2072 24.9059 359.4805 6.3813 356.7101 358.0990 8.2151 355.4591 359.1505 347.7889 21.0613 359.2172 332.9197 5.1388 0.7862 19.9492 359.6208 359.9779 352.8882 340.9249 
-6.8237 86.6932 89.6694 1.6353 359.8013 178.2905 358.8493 5.5044 356.2552 2.9538 12.5339 355.8716 4.5289 355.7385 0.4374 356.5102 22.4266 0.9473 339.3693 359.1089 4.9183 308.6087 32.4108 345.2342 17.1095 354.0384 322.4656 82.5344 359.5434 342.0542 20.7300 358.7131 352.9380 66.4300 36.3822 0.1937 341.9091 355.1776 29.6356 279.4876 353.3381 24.8398 359.4554 6.4388 356.6571 358.1284 8.2646 355.3991 358.9573 347.4847 21.0222 359.1313 332.7794 5.0924 0.7987 19.8948 359.4856 0.2038 352.6297 340.8705 
-6.6615 86.6267 89.3057 1.4880 359.6660 178.5000 358.8650 5.5249 356.2555 2.9175 12.5465 355.8762 4.6003 355.6928 0.3611 356.5203 22.3951 0.8791 339.3518 359.0767 5.0608 308.9616 33.0935 344.8837 17.4443 353.9352 322.5804 83.1133 359.5498 342.9352 20.7267 358.7050 352.8954 66.5721 36.3434 0.1224 341.8512 355.1557 29.6419 279.4644 353.3350 24.6577 359.4332 6.4872 356.5292 358.1271 8.3339 355.4635 358.9061 347.2827 20.8364 359.0337 332.6749 5.0320 0.7931 19.8790 359.5289 0.2391 352.5579 340.7838 
-6.4943 86.5562 88.9244 1.3365 359.5344 178.6968 358.9573 5.5760 356.2321 2.8049 12.4846 355.8708 4.5748 355.7190 0.3149 356.6162 22.3464 0.8035 339.3841 359.0888 4.9581 308.8873 32.7609 345.0238 17.3068 354.0403 322.4214 83.5034 359.5698 343.0592 20.7426 358.6777 352.8828 66.7203 36.3927 359.9922 341.7661 355.1455 29.6010 279.4344 353.2849 24.4991 359.4100 6.5602 356.4155 358.1289 8.4010 355.3680 358.8701 347.0440 20.8102 358.9476 332.5851 4.9956 0.7296 19.9369 359.9323 0.3371 352.4346 340.5738 
